<svg width="320" height="24" viewBox="0 0 320 24" fill="none" xmlns="http://www.w3.org/2000/svg">
<path d="M104.263 5.55504V17.1914H102.508V5.55504H104.263ZM109.023 12.0096V17.1914H107.324V8.46413H108.954V9.88459H109.062C109.263 9.42247 109.578 9.05125 110.006 8.77095C110.437 8.49065 110.981 8.3505 111.636 8.3505C112.231 8.3505 112.752 8.4755 113.199 8.7255C113.646 8.97171 113.992 9.33913 114.239 9.82777C114.485 10.3164 114.608 10.9206 114.608 11.6403V17.1914H112.909V11.8448C112.909 11.2122 112.744 10.7179 112.415 10.3619C112.085 10.002 111.633 9.82209 111.057 9.82209C110.663 9.82209 110.312 9.90732 110.006 10.0778C109.703 10.2482 109.462 10.4982 109.284 10.8278C109.11 11.1535 109.023 11.5475 109.023 12.0096ZM121.6 8.46413V9.82777H116.833V8.46413H121.6ZM118.112 6.37322H119.81V14.6289C119.81 14.9585 119.86 15.2066 119.958 15.3732C120.057 15.5361 120.183 15.6478 120.339 15.7085C120.498 15.7653 120.67 15.7937 120.856 15.7937C120.992 15.7937 121.112 15.7842 121.214 15.7653C121.316 15.7463 121.396 15.7312 121.452 15.7198L121.759 17.1232C121.661 17.1611 121.521 17.199 121.339 17.2369C121.157 17.2785 120.93 17.3013 120.657 17.305C120.21 17.3126 119.793 17.2331 119.407 17.0664C119.021 16.8997 118.708 16.6422 118.469 16.2937C118.231 15.9452 118.112 15.5077 118.112 14.9812V6.37322ZM127.787 17.3675C126.927 17.3675 126.187 17.1838 125.565 16.8164C124.948 16.4452 124.471 15.9244 124.134 15.2539C123.8 14.5797 123.634 13.7899 123.634 12.8846C123.634 11.9906 123.8 11.2028 124.134 10.521C124.471 9.83913 124.94 9.30694 125.543 8.92436C126.149 8.54178 126.857 8.3505 127.668 8.3505C128.16 8.3505 128.637 8.43194 129.1 8.59482C129.562 8.75769 129.976 9.01338 130.344 9.36186C130.711 9.71035 131.001 10.163 131.213 10.7198C131.425 11.2728 131.531 11.9452 131.531 12.7369V13.3391H124.594V12.0664H129.867C129.867 11.6194 129.776 11.2236 129.594 10.8789C129.412 10.5304 129.156 10.2558 128.827 10.055C128.501 9.85428 128.118 9.75391 127.679 9.75391C127.202 9.75391 126.785 9.87133 126.429 10.1062C126.077 10.3372 125.804 10.6403 125.611 11.0153C125.422 11.3865 125.327 11.7899 125.327 12.2255V13.2198C125.327 13.8031 125.429 14.2994 125.634 14.7085C125.842 15.1175 126.132 15.43 126.503 15.646C126.874 15.8581 127.308 15.9641 127.804 15.9641C128.126 15.9641 128.42 15.9187 128.685 15.8278C128.95 15.7331 129.179 15.5929 129.372 15.4073C129.565 15.2217 129.713 14.9925 129.815 14.7198L131.423 15.0096C131.295 15.4831 131.064 15.8978 130.73 16.2539C130.401 16.6062 129.986 16.8808 129.486 17.0778C128.99 17.271 128.423 17.3675 127.787 17.3675ZM134.056 17.1914V8.46413H135.698V9.8505H135.789C135.948 9.3808 136.229 9.01148 136.63 8.74254C137.035 8.46981 137.494 8.33345 138.005 8.33345C138.111 8.33345 138.236 8.33724 138.38 8.34482C138.528 8.35239 138.643 8.36186 138.727 8.37322V9.99822C138.659 9.97928 138.537 9.95845 138.363 9.93572C138.189 9.90921 138.015 9.89595 137.84 9.89595C137.439 9.89595 137.081 9.98118 136.767 10.1516C136.456 10.3183 136.21 10.5513 136.028 10.8505C135.846 11.146 135.755 11.4831 135.755 11.8619V17.1914H134.056ZM142.536 12.0096V17.1914H140.837V8.46413H142.468V9.88459H142.576C142.776 9.42247 143.091 9.05125 143.519 8.77095C143.951 8.49065 144.494 8.3505 145.149 8.3505C145.744 8.3505 146.265 8.4755 146.712 8.7255C147.159 8.97171 147.505 9.33913 147.752 9.82777C147.998 10.3164 148.121 10.9206 148.121 11.6403V17.1914H146.422V11.8448C146.422 11.2122 146.257 10.7179 145.928 10.3619C145.598 10.002 145.146 9.82209 144.57 9.82209C144.176 9.82209 143.826 9.90732 143.519 10.0778C143.216 10.2482 142.975 10.4982 142.797 10.8278C142.623 11.1535 142.536 11.5475 142.536 12.0096ZM153.579 17.3846C153.026 17.3846 152.526 17.2823 152.079 17.0778C151.632 16.8694 151.278 16.5683 151.017 16.1744C150.759 15.7804 150.63 15.2975 150.63 14.7255C150.63 14.2331 150.725 13.8278 150.914 13.5096C151.104 13.1914 151.359 12.9395 151.681 12.7539C152.003 12.5683 152.363 12.4281 152.761 12.3335C153.159 12.2388 153.564 12.1668 153.977 12.1175C154.5 12.0569 154.924 12.0077 155.25 11.9698C155.575 11.9281 155.812 11.8619 155.96 11.771C156.108 11.68 156.181 11.5323 156.181 11.3278V11.288C156.181 10.7918 156.041 10.4073 155.761 10.1346C155.484 9.86186 155.072 9.7255 154.522 9.7255C153.95 9.7255 153.5 9.85239 153.17 10.1062C152.844 10.3562 152.619 10.6346 152.494 10.9414L150.897 10.5778C151.087 10.0475 151.363 9.61944 151.727 9.29368C152.094 8.96413 152.517 8.7255 152.994 8.57777C153.471 8.42625 153.973 8.3505 154.5 8.3505C154.848 8.3505 155.217 8.39216 155.608 8.4755C156.002 8.55504 156.369 8.70277 156.71 8.91868C157.055 9.13459 157.337 9.4433 157.556 9.84482C157.776 10.2425 157.886 10.7596 157.886 11.396V17.1914H156.227V15.9982H156.159C156.049 16.2179 155.884 16.4338 155.664 16.646C155.445 16.8581 155.163 17.0342 154.818 17.1744C154.473 17.3145 154.06 17.3846 153.579 17.3846ZM153.949 16.021C154.418 16.021 154.82 15.9281 155.153 15.7425C155.49 15.5569 155.746 15.3145 155.92 15.0153C156.098 14.7122 156.187 14.3884 156.187 14.0437V12.9187C156.127 12.9793 156.009 13.0361 155.835 13.0891C155.664 13.1384 155.469 13.1819 155.25 13.2198C155.03 13.2539 154.816 13.2861 154.608 13.3164C154.399 13.3429 154.225 13.3656 154.085 13.3846C153.755 13.4263 153.454 13.4963 153.181 13.5948C152.913 13.6933 152.697 13.8353 152.534 14.021C152.375 14.2028 152.295 14.4452 152.295 14.7482C152.295 15.1687 152.45 15.4869 152.761 15.7028C153.072 15.9149 153.467 16.021 153.949 16.021ZM164.863 8.46413V9.82777H160.096V8.46413H164.863ZM161.374 6.37322H163.073V14.6289C163.073 14.9585 163.122 15.2066 163.221 15.3732C163.319 15.5361 163.446 15.6478 163.601 15.7085C163.76 15.7653 163.933 15.7937 164.118 15.7937C164.255 15.7937 164.374 15.7842 164.476 15.7653C164.579 15.7463 164.658 15.7312 164.715 15.7198L165.022 17.1232C164.923 17.1611 164.783 17.199 164.601 17.2369C164.419 17.2785 164.192 17.3013 163.919 17.305C163.473 17.3126 163.056 17.2331 162.669 17.0664C162.283 16.8997 161.971 16.6422 161.732 16.2937C161.493 15.9452 161.374 15.5077 161.374 14.9812V6.37322ZM167.382 17.1914V8.46413H169.081V17.1914H167.382ZM168.24 7.11754C167.944 7.11754 167.691 7.01906 167.479 6.82209C167.27 6.62133 167.166 6.38269 167.166 6.10618C167.166 5.82588 167.27 5.58724 167.479 5.39027C167.691 5.18951 167.944 5.08913 168.24 5.08913C168.535 5.08913 168.787 5.18951 168.996 5.39027C169.208 5.58724 169.314 5.82588 169.314 6.10618C169.314 6.38269 169.208 6.62133 168.996 6.82209C168.787 7.01906 168.535 7.11754 168.24 7.11754ZM175.682 17.3675C174.864 17.3675 174.15 17.18 173.54 16.805C172.931 16.43 172.457 15.9054 172.12 15.2312C171.783 14.5569 171.614 13.7691 171.614 12.8675C171.614 11.9622 171.783 11.1706 172.12 10.4925C172.457 9.81451 172.931 9.288 173.54 8.913C174.15 8.538 174.864 8.3505 175.682 8.3505C176.501 8.3505 177.215 8.538 177.824 8.913C178.434 9.288 178.908 9.81451 179.245 10.4925C179.582 11.1706 179.751 11.9622 179.751 12.8675C179.751 13.7691 179.582 14.5569 179.245 15.2312C178.908 15.9054 178.434 16.43 177.824 16.805C177.215 17.18 176.501 17.3675 175.682 17.3675ZM175.688 15.9414C176.218 15.9414 176.658 15.8013 177.006 15.521C177.355 15.2406 177.612 14.8675 177.779 14.4016C177.949 13.9357 178.035 13.4225 178.035 12.8619C178.035 12.305 177.949 11.7937 177.779 11.3278C177.612 10.8581 177.355 10.4812 177.006 10.1971C176.658 9.913 176.218 9.77095 175.688 9.77095C175.154 9.77095 174.711 9.913 174.359 10.1971C174.01 10.4812 173.751 10.8581 173.58 11.3278C173.413 11.7937 173.33 12.305 173.33 12.8619C173.33 13.4225 173.413 13.9357 173.58 14.4016C173.751 14.8675 174.01 15.2406 174.359 15.521C174.711 15.8013 175.154 15.9414 175.688 15.9414ZM183.986 12.0096V17.1914H182.287V8.46413H183.918V9.88459H184.026C184.226 9.42247 184.541 9.05125 184.969 8.77095C185.401 8.49065 185.944 8.3505 186.599 8.3505C187.194 8.3505 187.715 8.4755 188.162 8.7255C188.609 8.97171 188.955 9.33913 189.202 9.82777C189.448 10.3164 189.571 10.9206 189.571 11.6403V17.1914H187.872V11.8448C187.872 11.2122 187.707 10.7179 187.378 10.3619C187.048 10.002 186.596 9.82209 186.02 9.82209C185.626 9.82209 185.276 9.90732 184.969 10.0778C184.666 10.2482 184.425 10.4982 184.247 10.8278C184.073 11.1535 183.986 11.5475 183.986 12.0096ZM195.029 17.3846C194.476 17.3846 193.976 17.2823 193.529 17.0778C193.082 16.8694 192.728 16.5683 192.467 16.1744C192.209 15.7804 192.08 15.2975 192.08 14.7255C192.08 14.2331 192.175 13.8278 192.364 13.5096C192.554 13.1914 192.809 12.9395 193.131 12.7539C193.453 12.5683 193.813 12.4281 194.211 12.3335C194.609 12.2388 195.014 12.1668 195.427 12.1175C195.95 12.0569 196.374 12.0077 196.7 11.9698C197.025 11.9281 197.262 11.8619 197.41 11.771C197.558 11.68 197.631 11.5323 197.631 11.3278V11.288C197.631 10.7918 197.491 10.4073 197.211 10.1346C196.934 9.86186 196.522 9.7255 195.972 9.7255C195.4 9.7255 194.95 9.85239 194.62 10.1062C194.294 10.3562 194.069 10.6346 193.944 10.9414L192.347 10.5778C192.537 10.0475 192.813 9.61944 193.177 9.29368C193.544 8.96413 193.967 8.7255 194.444 8.57777C194.921 8.42625 195.423 8.3505 195.95 8.3505C196.298 8.3505 196.667 8.39216 197.058 8.4755C197.452 8.55504 197.819 8.70277 198.16 8.91868C198.505 9.13459 198.787 9.4433 199.006 9.84482C199.226 10.2425 199.336 10.7596 199.336 11.396V17.1914H197.677V15.9982H197.609C197.499 16.2179 197.334 16.4338 197.114 16.646C196.895 16.8581 196.613 17.0342 196.268 17.1744C195.923 17.3145 195.51 17.3846 195.029 17.3846ZM195.399 16.021C195.868 16.021 196.27 15.9281 196.603 15.7425C196.94 15.5569 197.196 15.3145 197.37 15.0153C197.548 14.7122 197.637 14.3884 197.637 14.0437V12.9187C197.577 12.9793 197.459 13.0361 197.285 13.0891C197.114 13.1384 196.919 13.1819 196.7 13.2198C196.48 13.2539 196.266 13.2861 196.058 13.3164C195.849 13.3429 195.675 13.3656 195.535 13.3846C195.205 13.4263 194.904 13.4963 194.631 13.5948C194.363 13.6933 194.147 13.8353 193.984 14.021C193.825 14.2028 193.745 14.4452 193.745 14.7482C193.745 15.1687 193.9 15.4869 194.211 15.7028C194.522 15.9149 194.917 16.021 195.399 16.021ZM203.938 5.55504V17.1914H202.239V5.55504H203.938ZM221.539 9.33913H219.766C219.698 8.96035 219.571 8.62701 219.385 8.33913C219.2 8.05125 218.972 7.80694 218.703 7.60618C218.435 7.40542 218.133 7.25391 217.8 7.15163C217.47 7.04936 217.12 6.99822 216.749 6.99822C216.078 6.99822 215.478 7.16678 214.948 7.50391C214.421 7.84103 214.005 8.33535 213.698 8.98686C213.395 9.63838 213.243 10.4338 213.243 11.3732C213.243 12.3202 213.395 13.1194 213.698 13.771C214.005 14.4225 214.423 14.9149 214.953 15.2482C215.484 15.5816 216.08 15.7482 216.743 15.7482C217.111 15.7482 217.459 15.699 217.789 15.6005C218.122 15.4982 218.423 15.3486 218.692 15.1516C218.961 14.9547 219.188 14.7141 219.374 14.43C219.563 14.1422 219.694 13.8126 219.766 13.4414L221.539 13.4471C221.444 14.0191 221.26 14.5456 220.988 15.0266C220.719 15.5039 220.372 15.9168 219.948 16.2653C219.527 16.61 219.046 16.877 218.505 17.0664C217.963 17.2558 217.372 17.3505 216.732 17.3505C215.724 17.3505 214.827 17.1119 214.039 16.6346C213.251 16.1535 212.63 15.466 212.175 14.5721C211.724 13.6781 211.499 12.6119 211.499 11.3732C211.499 10.1308 211.726 9.06451 212.181 8.17436C212.635 7.28042 213.256 6.59481 214.044 6.11754C214.832 5.63648 215.728 5.39595 216.732 5.39595C217.349 5.39595 217.925 5.48497 218.459 5.663C218.997 5.83724 219.48 6.09481 219.908 6.43572C220.336 6.77285 220.69 7.18572 220.97 7.67436C221.251 8.15921 221.44 8.71413 221.539 9.33913ZM226.683 17.3846C226.13 17.3846 225.63 17.2823 225.183 17.0778C224.736 16.8694 224.382 16.5683 224.12 16.1744C223.863 15.7804 223.734 15.2975 223.734 14.7255C223.734 14.2331 223.829 13.8278 224.018 13.5096C224.208 13.1914 224.463 12.9395 224.785 12.7539C225.107 12.5683 225.467 12.4281 225.865 12.3335C226.262 12.2388 226.668 12.1668 227.081 12.1175C227.603 12.0569 228.028 12.0077 228.353 11.9698C228.679 11.9281 228.916 11.8619 229.064 11.771C229.211 11.68 229.285 11.5323 229.285 11.3278V11.288C229.285 10.7918 229.145 10.4073 228.865 10.1346C228.588 9.86186 228.175 9.7255 227.626 9.7255C227.054 9.7255 226.603 9.85239 226.274 10.1062C225.948 10.3562 225.723 10.6346 225.598 10.9414L224.001 10.5778C224.191 10.0475 224.467 9.61944 224.831 9.29368C225.198 8.96413 225.62 8.7255 226.098 8.57777C226.575 8.42625 227.077 8.3505 227.603 8.3505C227.952 8.3505 228.321 8.39216 228.711 8.4755C229.105 8.55504 229.473 8.70277 229.814 8.91868C230.158 9.13459 230.441 9.4433 230.66 9.84482C230.88 10.2425 230.99 10.7596 230.99 11.396V17.1914H229.331V15.9982H229.262C229.153 16.2179 228.988 16.4338 228.768 16.646C228.548 16.8581 228.266 17.0342 227.922 17.1744C227.577 17.3145 227.164 17.3846 226.683 17.3846ZM227.052 16.021C227.522 16.021 227.923 15.9281 228.257 15.7425C228.594 15.5569 228.85 15.3145 229.024 15.0153C229.202 14.7122 229.291 14.3884 229.291 14.0437V12.9187C229.23 12.9793 229.113 13.0361 228.939 13.0891C228.768 13.1384 228.573 13.1819 228.353 13.2198C228.134 13.2539 227.92 13.2861 227.711 13.3164C227.503 13.3429 227.329 13.3656 227.189 13.3846C226.859 13.4263 226.558 13.4963 226.285 13.5948C226.016 13.6933 225.8 13.8353 225.637 14.021C225.478 14.2028 225.399 14.4452 225.399 14.7482C225.399 15.1687 225.554 15.4869 225.865 15.7028C226.175 15.9149 226.571 16.021 227.052 16.021ZM233.893 17.1914V8.46413H235.535V9.8505H235.626C235.785 9.3808 236.065 9.01148 236.466 8.74254C236.872 8.46981 237.33 8.33345 237.841 8.33345C237.947 8.33345 238.072 8.33724 238.216 8.34482C238.364 8.35239 238.48 8.36186 238.563 8.37322V9.99822C238.495 9.97928 238.374 9.95845 238.199 9.93572C238.025 9.90921 237.851 9.89595 237.677 9.89595C237.275 9.89595 236.917 9.98118 236.603 10.1516C236.292 10.3183 236.046 10.5513 235.864 10.8505C235.682 11.146 235.591 11.4831 235.591 11.8619V17.1914H233.893ZM243.628 17.3619C242.923 17.3619 242.294 17.1819 241.741 16.8221C241.192 16.4585 240.76 15.9414 240.446 15.271C240.135 14.5967 239.98 13.788 239.98 12.8448C239.98 11.9016 240.137 11.0948 240.452 10.4244C240.77 9.75391 241.205 9.24065 241.758 8.88459C242.311 8.52853 242.938 8.3505 243.639 8.3505C244.181 8.3505 244.616 8.44141 244.946 8.62322C245.279 8.80125 245.537 9.00959 245.719 9.24822C245.904 9.48686 246.048 9.69709 246.15 9.87891H246.253V5.55504H247.952V17.1914H246.292V15.8335H246.15C246.048 16.0191 245.9 16.2312 245.707 16.4698C245.518 16.7085 245.257 16.9168 244.923 17.0948C244.59 17.2728 244.158 17.3619 243.628 17.3619ZM244.003 15.913C244.491 15.913 244.904 15.7842 245.241 15.5266C245.582 15.2653 245.84 14.9035 246.014 14.4414C246.192 13.9793 246.281 13.4414 246.281 12.8278C246.281 12.2217 246.194 11.6914 246.02 11.2369C245.846 10.7823 245.59 10.4281 245.253 10.1744C244.916 9.92057 244.499 9.79368 244.003 9.79368C243.491 9.79368 243.065 9.92625 242.724 10.1914C242.383 10.4566 242.126 10.8183 241.952 11.2766C241.781 11.735 241.696 12.252 241.696 12.8278C241.696 13.4111 241.783 13.9357 241.957 14.4016C242.132 14.8675 242.389 15.2369 242.73 15.5096C243.075 15.7785 243.499 15.913 244.003 15.913Z" fill="white" fill-opacity="0.31"/>
<path d="M17.7537 19.1696L20.28 4.34893H24.3193L21.7923 19.1696H17.7537ZM36.3679 4.67406C35.2087 4.25415 33.9841 4.04344 32.7512 4.05175C28.7648 4.05175 25.9564 6.05937 25.9322 8.93729C25.9103 11.0644 27.9375 12.2507 29.468 12.9585C31.0385 13.6844 31.5663 14.1472 31.5588 14.7952C31.549 15.7873 30.3043 16.2402 29.1451 16.2402C27.53 16.2402 26.6725 16.0134 25.3469 15.4637L24.8275 15.2285L24.2611 18.542C25.2033 18.9548 26.9462 19.3132 28.755 19.3314C32.9962 19.3314 35.7494 17.3472 35.7811 14.2742C35.7963 12.5902 34.7225 11.3086 32.3936 10.2522C30.9834 9.57168 30.1198 9.11042 30.1289 8.41703C30.1289 7.80227 30.8601 7.14445 32.4397 7.14445C33.4746 7.12128 34.503 7.31444 35.459 7.71157L35.8205 7.88244L36.3679 4.67406ZM46.7454 4.34893H43.6376C42.675 4.34893 41.9544 4.61209 41.5317 5.5724L35.5581 19.0939H39.8099C39.8099 19.0939 40.4905 17.2958 40.647 16.9011L45.7412 16.9071C45.8599 17.4183 46.2252 19.0939 46.2252 19.0939H49.9999L46.7454 4.34893ZM41.8039 13.8765C42.1374 13.0235 43.4115 9.73878 43.4115 9.73878C43.3873 9.7781 43.7427 8.88131 43.9461 8.32554L44.2191 9.60195C44.2191 9.60195 44.9919 13.1354 45.1529 13.8765H41.8039ZM14.326 4.34893L10.3849 14.4201L9.96526 12.3733C9.23179 10.014 6.94594 7.45825 4.39014 6.17884L7.99398 19.0939L12.2526 19.0894L18.59 4.34893H14.3064" fill="url(#paint0_linear_1307_211)"/>
<!-- <path d="M6.53014 4.34849H0.0521702L0 4.65623C5.0617 5.88195 8.41068 8.84307 9.80124 12.4L8.38648 5.59463C8.14225 4.65775 7.43451 4.37797 6.55813 4.34546" fill="url(#paint1_linear_1307_211)"/> -->
<defs>
<!-- <linearGradient id="paint0_linear_1307_211" x1="27.195" y1="4.05151" x2="27.195" y2="19.3314" gradientUnits="userSpaceOnUse">
<stop stop-color="white"/>
<stop offset="1" stop-color="white" stop-opacity="0.75"/>
</linearGradient> -->
<linearGradient id="paint1_linear_1307_211" x1="4.90062" y1="4.34546" x2="4.90062" y2="12.4" gradientUnits="userSpaceOnUse">
<stop stop-color="white"/>
<stop offset="1" stop-color="white" stop-opacity="0.75"/>
</linearGradient>
</defs>
</svg>
